# xmcd
#
# Track frame offsets:
#	150
#	15298
#	27917
#	43352
#	54230
#	67771
#	82899
#	93731
#	110670
#	126090
#
# Disc length: 1878 seconds
#
# Revision: 1
# Processed by: cddbd v1.5.2PL0 Copyright (c) Steve Scherf et al.
# Submitted via: audiograbber 1.83.01
#
DISCID=7707540a
DTITLE=Kingdom Heirs - White Christmas
DYEAR=2006
DGENRE=Gospel
TTITLE0=White Christmas
TTITLE1=Jingle Bells
TTITLE2=Let's Make a Baby King
TTITLE3=It's Beginning to Look a Lot Like Christmas
TTITLE4=Mele Kalikimaka
TTITLE5=Thank God for Kids
TTITLE6=That Little Bitty Baby
TTITLE7=Pretty Paper
TTITLE8=Little Drummer Boy
TTITLE9=O Holy Night
EXTD=
EXTT0=
EXTT1=
EXTT2=
EXTT3=
EXTT4=
EXTT5=
EXTT6=
EXTT7=
EXTT8=
EXTT9=
PLAYORDER=
